<svg id="visual" viewBox="0 0 1920 1080" width="1920" height="1080" xmlns="http://www.w3.org/2000/svg" xmlns:xlink="http://www.w3.org/1999/xlink" version="1.1"><rect x="0" y="0" width="1920" height="1080" fill="#002233"></rect><path d="M0 833L45.7 813.2C91.3 793.3 182.7 753.7 274.2 739.7C365.7 725.7 457.3 737.3 548.8 758.5C640.3 779.7 731.7 810.3 823 841.2C914.3 872 1005.7 903 1097 891.8C1188.3 880.7 1279.7 827.3 1371.2 795C1462.7 762.7 1554.3 751.3 1645.8 762.2C1737.3 773 1828.7 806 1874.3 822.5L1920 839L1920 1081L1874.3 1081C1828.7 1081 1737.3 1081 1645.8 1081C1554.3 1081 1462.7 1081 1371.2 1081C1279.7 1081 1188.3 1081 1097 1081C1005.7 1081 914.3 1081 823 1081C731.7 1081 640.3 1081 548.8 1081C457.3 1081 365.7 1081 274.2 1081C182.7 1081 91.3 1081 45.7 1081L0 1081Z" fill="#0066FF" stroke-linecap="round" stroke-linejoin="miter"></path></svg>